<?xml version="1.0" encoding="iso-8859-1"?>
<!-- Generator: Adobe Illustrator 21.0.0, SVG Export Plug-In . SVG Version: 6.00 Build 0)  -->
<svg xmlns="http://www.w3.org/2000/svg" xmlns:xlink="http://www.w3.org/1999/xlink" version="1.1" id="Capa_1" x="0px" y="0px" viewBox="0 0 512 512" style="enable-background:new 0 0 512 512;" xml:space="preserve" width="512" height="512">
<g>
	<rect x="154.93" y="24.724" style="fill:#2D3B42;" width="202.141" height="127.742"/>
	<path style="fill:#ffffff;" d="M428.232,175.136v319.093c0,9.814-7.965,17.771-17.79,17.771H101.558   c-9.825,0-17.79-7.956-17.79-17.771V175.136c0-16.08,5.048-31.754,14.433-44.811l0.011-0.015   c9.385-13.057,14.433-28.731,14.433-44.811V4c0-2.209,1.791-4,4-4h53.88c2.209,0,4,1.791,4,4v65.932   c0,22.256,18.062,40.298,40.343,40.298h82.265c22.281,0,40.343-18.042,40.343-40.298V4c0-2.209,1.791-4,4-4h53.88   c2.209,0,4,1.791,4,4v81.5c0,16.08,5.048,31.754,14.433,44.811l0.011,0.015C423.184,143.383,428.232,159.056,428.232,175.136z"/>
	<g>
		<path style="fill:#ffffff;" d="M183.928,110.229h30.94c-22.281,0-40.343-18.042-40.343-40.298V4c0-2.209-1.791-4-4-4h-26.94    v69.932C143.585,92.187,161.647,110.229,183.928,110.229z"/>
		<path style="fill:#ffffff;" d="M413.794,130.318L413.794,130.318c-9.389-13.063-14.439-28.738-14.439-44.818V4    c0-2.209-1.791-4-4-4h-26.94v85.5c0,16.08,5.05,31.756,14.439,44.818l0,0c9.389,13.063,14.439,28.738,14.439,44.818v319.093    c0,9.814-7.965,17.771-17.79,17.771h30.94c9.825,0,17.79-7.956,17.79-17.771V175.136    C428.232,159.056,423.182,143.38,413.794,130.318z"/>
	</g>
	<path style="fill:#ffffff;" d="M364.823,167.92H148.209c-8.534,0-15.453-6.918-15.453-15.453v0c0-8.534,6.918-15.453,15.453-15.453   h216.614c8.534,0,15.453,6.918,15.453,15.453v0C380.275,161.001,373.357,167.92,364.823,167.92z"/>
	<path style="fill:#ffffff;" d="M364.823,227.67H148.209c-8.534,0-15.453-6.918-15.453-15.453v0c0-8.534,6.918-15.453,15.453-15.453   h216.614c8.534,0,15.453,6.918,15.453,15.453v0C380.275,220.752,373.357,227.67,364.823,227.67z"/>
	<path style="fill:#ffffff;" d="M364.823,287.421H148.209c-8.534,0-15.453-6.918-15.453-15.453v0   c0-8.534,6.918-15.453,15.453-15.453h216.614c8.534,0,15.453,6.918,15.453,15.453v0   C380.275,280.502,373.357,287.421,364.823,287.421z"/>
	<g>
		<path style="fill:#ffffff;" d="M184.328,474.913H68.808c-5.693,0-10.308-4.615-10.308-10.308V319.362    c0-5.693,4.615-10.308,10.308-10.308h45.825c44.184,0,80.003,35.819,80.003,80.003v75.549    C194.636,470.299,190.021,474.913,184.328,474.913z"/>
		<path style="fill:#ffffff;" d="M114.588,309.054h-30.94c44.209,0,80.048,35.799,80.048,79.958v75.599    c0,5.69-4.617,10.302-10.313,10.302h30.94c5.696,0,10.313-4.612,10.313-10.302v-75.599    C194.636,344.853,158.797,309.054,114.588,309.054z"/>
		<path style="fill:#ffffff;" d="M327.672,474.913h115.521c5.693,0,10.308-4.615,10.308-10.308V319.362    c0-5.693-4.615-10.308-10.308-10.308h-45.825c-44.184,0-80.003,35.819-80.003,80.003v75.549    C317.364,470.299,321.979,474.913,327.672,474.913z"/>
		<path style="fill:#ffffff;" d="M443.187,309.054h-30.94c5.696,0,10.313,4.612,10.313,10.302v145.256    c0,5.69-4.617,10.302-10.313,10.302h30.94c5.696,0,10.313-4.612,10.313-10.302V319.356    C453.5,313.667,448.883,309.054,443.187,309.054z"/>
	</g>
</g>















</svg>
