<svg class="icon" style="width: 1em; height: 1em;vertical-align: middle;fill: white;overflow: hidden;" viewBox="0 0 1024 1024" version="1.1" xmlns="http://www.w3.org/2000/svg"><path d="M512 181.664q135.232 0 263.232 47.488t232.256 139.712q14.784 12.736 14.784 33.024 0 17.216-11.008 29.248l-2.08 2.08q-12.736 12.736-30.976 12.736-17.216 0-29.248-11.008-91.872-81.216-204.896-123.168t-232.096-41.984-232.096 41.984-204.896 123.168q-12.032 11.008-29.248 11.008-20.288 0-33.024-14.784-11.008-12.032-11.008-29.248 0-20.288 14.784-33.024 104.608-92.224 232.416-139.712t263.04-47.488zM512.352 710.208q59.872 0 111.136 30.272 10.336 6.208 16.16 16.352t5.856 21.856-6.208 22.016q-3.104 5.152-6.88 8.96-12.736 12.736-31.296 12.736-12.384 0-22.016-5.856-31.296-18.24-66.752-18.24-35.776 0-67.104 18.24-11.008 6.208-22.368 6.208-25.12 0-38.208-21.664-6.208-10.336-6.208-22.016 0-25.12 21.664-38.208 51.968-30.624 112.16-30.624zM512 446.272q83.264 0 162.08 27.52t144.512 81.536q16.16 13.088 16.16 34.08 0 15.84-9.984 27.872-2.08 2.752-2.752 3.456-12.736 12.736-30.976 12.736-16.16 0-28.224-9.984-53.664-44.032-118.368-66.752t-132.48-22.72-132.48 22.72-118.368 66.752q-12.032 9.984-27.872 9.984-20.992 0-34.08-16.16-9.984-12.032-9.984-27.872 0-20.992 16.16-34.08 65.376-54.016 144.512-81.536t162.08-27.52z" /></svg>