<?xml version="1.0" encoding="iso-8859-1"?>
<!-- Generator: Adobe Illustrator 19.0.0, SVG Export Plug-In . SVG Version: 6.00 Build 0)  -->
<svg version="1.1" id="Layer_1" xmlns="http://www.w3.org/2000/svg" xmlns:xlink="http://www.w3.org/1999/xlink" x="0px" y="0px"
	 viewBox="0 0 509.867 509.867" style="enable-background:new 0 0 509.867 509.867;" xml:space="preserve">
<path style="fill:#FFFFFF;" d="M336,263.467c7.467-7.467,11.733-17.067,11.733-27.733v-54.4c0-26.667-11.733-51.2-29.867-68.267
	c-6.4-5.333-11.733-12.8-16-19.2H208c-4.267,7.467-9.6,13.867-16,19.2c-18.133,17.067-29.867,40.533-29.867,68.267v60.8
	c0,8.533,5.333,14.933,11.733,20.267l0,0c4.267,4.267,4.267,19.2,0,23.467l0,0c-6.4,5.333-11.733,11.733-11.733,20.267V480
	c0,6.4,3.2,11.733,7.467,16c6.4,8.533,16,13.867,27.733,13.867c8.533,0,17.067-3.2,22.4-8.533h11.733
	c6.4,5.333,13.867,8.533,22.4,8.533c8.533,0,17.067-3.2,22.4-8.533H288c6.4,5.333,13.867,8.533,22.4,8.533
	c11.733,0,21.333-5.333,27.733-13.867c4.267-4.267,7.467-9.6,7.467-16V308.267c0-5.333-3.2-11.733-6.4-16L336,288
	C329.6,281.6,329.6,269.867,336,263.467L336,263.467z"/>
<path style="fill:#FFFFFF;" d="M217.6,54.4L217.6,54.4l1.067,6.4c0,17.067-6.4,33.067-18.133,46.933h110.933
	c-10.667-12.8-18.133-28.8-18.133-46.933v-6.4h1.067c2.133,0,4.267-2.133,4.267-4.267c0-2.133-2.133-4.267-4.267-4.267h-1.067
	V34.133H217.6v9.6h-1.067c-2.133,0-4.267,2.133-4.267,4.267C212.267,52.267,214.4,54.4,217.6,54.4z"/>
<path style="fill:#FFFFFF;" d="M285.867,0h-59.733c-5.333,0-10.667,4.267-10.667,10.667V35.2h81.067V10.667
	C296.533,4.267,291.2,0,285.867,0z"/>
<rect id="SVGCleanerId_0" x="163.2" y="325.333" style="fill:#FFFFFF;" width="184.533" height="110.933"/>
<g>
	<rect id="SVGCleanerId_0_1_" x="163.2" y="325.333" style="fill:#FFFFFF;" width="184.533" height="110.933"/>
</g>
<path style="fill:rgba(255, 255, 255, 0.0);" d="M283.733,394.667c0,14.933-12.8,27.733-27.733,27.733c-14.933,0-27.733-12.8-27.733-27.733
	c0-14.933,27.733-54.4,27.733-54.4S283.733,378.667,283.733,394.667z"/>
<path style="opacity:0.1;fill:#FFFFFF;enable-background:new    ;" d="M262.4,414.933c-14.933,0-27.733-12.8-27.733-27.733
	c0-10.667,13.867-34.133,22.4-46.933C256,340.267,256,339.2,256,339.2s-27.733,39.467-27.733,54.4
	c0,14.933,12.8,27.733,27.733,27.733c9.6,0,17.067-4.267,22.4-11.733C274.133,413.867,268.8,414.933,262.4,414.933z"/>
<g>
</g>
<g>
</g>
<g>
</g>
<g>
</g>
<g>
</g>
<g>
</g>
<g>
</g>
<g>
</g>
<g>
</g>
<g>
</g>
<g>
</g>
<g>
</g>
<g>
</g>
<g>
</g>
<g>
</g>
</svg>
